<svg xmlns="http://www.w3.org/2000/svg" width="400" height="250" viewBox="0 0 400 250">
  <rect width="400" height="250" fill="#1F2325" rx="8"/>

  <!-- Section heading -->
  <rect x="30" y="20" width="140" height="12" rx="3" fill="#FFFFFF" opacity="0.8"/>

  <!-- Accordion item 1 (expanded) -->
  <rect x="30" y="48" width="340" height="70" rx="6" fill="#FFFFFF" opacity="0.06" stroke="#34A3D3" stroke-width="1"/>
  <rect x="46" y="58" width="120" height="10" rx="2" fill="#FFFFFF" opacity="0.7"/>
  <!-- Minus icon -->
  <rect x="342" y="62" width="14" height="2" rx="1" fill="#34A3D3"/>
  <!-- Expanded content -->
  <rect x="46" y="78" width="260" height="6" rx="2" fill="#FFFFFF" opacity="0.2"/>
  <rect x="46" y="90" width="220" height="6" rx="2" fill="#FFFFFF" opacity="0.2"/>
  <rect x="46" y="102" width="180" height="6" rx="2" fill="#FFFFFF" opacity="0.2"/>

  <!-- Accordion item 2 (collapsed) -->
  <rect x="30" y="128" width="340" height="36" rx="6" fill="#FFFFFF" opacity="0.04"/>
  <rect x="46" y="140" width="140" height="10" rx="2" fill="#FFFFFF" opacity="0.5"/>
  <!-- Plus icon -->
  <rect x="342" y="144" width="14" height="2" rx="1" fill="#FFFFFF" opacity="0.4"/>
  <rect x="348" y="138" width="2" height="14" rx="1" fill="#FFFFFF" opacity="0.4"/>

  <!-- Accordion item 3 (collapsed) -->
  <rect x="30" y="174" width="340" height="36" rx="6" fill="#FFFFFF" opacity="0.04"/>
  <rect x="46" y="186" width="110" height="10" rx="2" fill="#FFFFFF" opacity="0.5"/>
  <!-- Plus icon -->
  <rect x="342" y="190" width="14" height="2" rx="1" fill="#FFFFFF" opacity="0.4"/>
  <rect x="348" y="184" width="2" height="14" rx="1" fill="#FFFFFF" opacity="0.4"/>

  <!-- Label -->
  <text x="200" y="238" text-anchor="middle" font-family="system-ui, sans-serif" font-size="11" fill="#FFFFFF" opacity="0.35">Feature Accordion</text>
</svg>