<svg xmlns="http://www.w3.org/2000/svg" width="400" height="250" viewBox="0 0 400 250">
  <rect width="400" height="250" fill="#1F2325" rx="8"/>

  <!-- Section heading -->
  <rect x="130" y="14" width="140" height="12" rx="3" fill="#FFFFFF" opacity="0.8"/>

  <!-- Row 1 -->
  <!-- Card 1 -->
  <rect x="20" y="40" width="112" height="85" rx="6" fill="#FFFFFF" opacity="0.05"/>
  <circle cx="50" cy="58" r="10" fill="#34A3D3" opacity="0.5"/>
  <rect x="30" y="76" width="70" height="8" rx="2" fill="#FFFFFF" opacity="0.6"/>
  <rect x="30" y="90" width="90" height="5" rx="2" fill="#FFFFFF" opacity="0.2"/>
  <rect x="30" y="100" width="75" height="5" rx="2" fill="#FFFFFF" opacity="0.2"/>
  <rect x="30" y="110" width="60" height="5" rx="2" fill="#FFFFFF" opacity="0.2"/>

  <!-- Card 2 -->
  <rect x="144" y="40" width="112" height="85" rx="6" fill="#FFFFFF" opacity="0.05"/>
  <circle cx="174" cy="58" r="10" fill="#34A3D3" opacity="0.5"/>
  <rect x="154" y="76" width="80" height="8" rx="2" fill="#FFFFFF" opacity="0.6"/>
  <rect x="154" y="90" width="90" height="5" rx="2" fill="#FFFFFF" opacity="0.2"/>
  <rect x="154" y="100" width="70" height="5" rx="2" fill="#FFFFFF" opacity="0.2"/>
  <rect x="154" y="110" width="80" height="5" rx="2" fill="#FFFFFF" opacity="0.2"/>

  <!-- Card 3 -->
  <rect x="268" y="40" width="112" height="85" rx="6" fill="#FFFFFF" opacity="0.05"/>
  <circle cx="298" cy="58" r="10" fill="#34A3D3" opacity="0.5"/>
  <rect x="278" y="76" width="65" height="8" rx="2" fill="#FFFFFF" opacity="0.6"/>
  <rect x="278" y="90" width="90" height="5" rx="2" fill="#FFFFFF" opacity="0.2"/>
  <rect x="278" y="100" width="80" height="5" rx="2" fill="#FFFFFF" opacity="0.2"/>
  <rect x="278" y="110" width="65" height="5" rx="2" fill="#FFFFFF" opacity="0.2"/>

  <!-- Row 2 -->
  <!-- Card 4 -->
  <rect x="20" y="138" width="112" height="85" rx="6" fill="#FFFFFF" opacity="0.05"/>
  <circle cx="50" cy="156" r="10" fill="#34A3D3" opacity="0.5"/>
  <rect x="30" y="174" width="75" height="8" rx="2" fill="#FFFFFF" opacity="0.6"/>
  <rect x="30" y="188" width="90" height="5" rx="2" fill="#FFFFFF" opacity="0.2"/>
  <rect x="30" y="198" width="70" height="5" rx="2" fill="#FFFFFF" opacity="0.2"/>
  <rect x="30" y="208" width="80" height="5" rx="2" fill="#FFFFFF" opacity="0.2"/>

  <!-- Card 5 -->
  <rect x="144" y="138" width="112" height="85" rx="6" fill="#FFFFFF" opacity="0.05"/>
  <circle cx="174" cy="156" r="10" fill="#34A3D3" opacity="0.5"/>
  <rect x="154" y="174" width="85" height="8" rx="2" fill="#FFFFFF" opacity="0.6"/>
  <rect x="154" y="188" width="90" height="5" rx="2" fill="#FFFFFF" opacity="0.2"/>
  <rect x="154" y="198" width="75" height="5" rx="2" fill="#FFFFFF" opacity="0.2"/>
  <rect x="154" y="208" width="65" height="5" rx="2" fill="#FFFFFF" opacity="0.2"/>

  <!-- Card 6 -->
  <rect x="268" y="138" width="112" height="85" rx="6" fill="#FFFFFF" opacity="0.05"/>
  <circle cx="298" cy="156" r="10" fill="#34A3D3" opacity="0.5"/>
  <rect x="278" y="174" width="70" height="8" rx="2" fill="#FFFFFF" opacity="0.6"/>
  <rect x="278" y="188" width="90" height="5" rx="2" fill="#FFFFFF" opacity="0.2"/>
  <rect x="278" y="198" width="80" height="5" rx="2" fill="#FFFFFF" opacity="0.2"/>
  <rect x="278" y="208" width="60" height="5" rx="2" fill="#FFFFFF" opacity="0.2"/>

  <!-- Label -->
  <text x="200" y="240" text-anchor="middle" font-family="system-ui, sans-serif" font-size="11" fill="#FFFFFF" opacity="0.35">Feature Grid</text>
</svg>