<?xml version="1.0" encoding="UTF-8"?>
<svg class="ugb-custom-icon" version="1.1" viewBox="0 0 1200 1200" xmlns="http://www.w3.org/2000/svg">
<path transform="translate(657,60)" d="m0 0h31l26 3 23 5 24 8 20 9 15 8 18 12 13 10 12 11 8 7 9 10 13 16 13 20 12 23 9 22 7 25 4 23 2 28v2l15-3 10-1h29l21 3 19 5 19 7 20 10 16 11 10 8 12 11 7 7 11 14 10 15 8 15 8 21 5 18 3 18 1 12v20l-2 19-4 19-7 21-10 21-11 17-11 14-12 13-8 7-6 5 2 17v19l-3 19-6 18-9 17-10 13-14 14-14 10-16 8-15 5-15 3h-8l7 23 47 1 7 3 4 5 1 2v88l-1 11-3 5-5 4-3 1h-48l-9 26-13 27-3 6 31 31 4 7v8l-4 7-15 14-37 37-16 14-2 1h-9l-6-4-25-25-5-6-5 1-23 11-30 10h-3v33l-1 17-3 5-5 4-2 1h-56l-42-1-6-4-4-6v-50l-11-3-19-7-21-10-8-4-8 7-25 25-7 3-8-1-8-6-11-12-39-39-7-8-6-7-1-7 3-8 13-13 8-7 12-12-2-6-11-23-9-27-1-4-49-1-6-4-4-5v-93l2-9 4-5 9-3 46 1 2-10 3-9h-8l-15-3-15-5-16-8-11-8-10-9-8-8-10-14-8-16-5-14-3-14v-5h-172l-21-2-23-5-20-7-19-9-17-11-14-11-14-13-7-8-12-16-10-17-8-17-7-21-4-19-2-19v-20l2-19 5-23 6-17 11-23 9-14 10-13 12-13 13-12 17-12 16-9 17-8 22-7 21-4 10-1h28l14 1 15-16 14-12 13-9 14-8 14-7 16-6 25-6 15-2h40l7-20 9-20 10-18 11-16 13-16 12-13 14-13 17-13 17-11 23-12 26-10 22-6 25-4zm-4 29-21 3-21 5-20 7-23 11-16 10-12 9-11 9-19 19-13 17-11 17-8 15-8 20-8 26-4 5-5 2-12-1-20-2h-11l-20 2-21 5-16 6-21 11-11 8-11 9-13 13-9 11-6 3-13-1-7-1h-34l-22 4-21 7-16 8-13 8-13 10-12 11-9 11-10 14-9 16-8 21-5 23-1 9v27l3 20 6 21 9 20 10 16 9 11 9 10 12 11 16 11 14 8 21 8 20 5 18 2h174l2-7 5-17 7-16 10-15 11-12 10-9 14-9 17-8 18-5 16-2h13l11 1 1-1 2-18 4-17 7-19 10-19 12-16 9-10 7-7 13-10 13-8 16-8 18-6 19-4 9-1h25l20 3 18 5 16 7 15 8 16 12 12 11 9 10 9 13 9 16 8 19h20l18 3 21 7 16 9 14 11 9 9h21l21 3 21 7 16 9 12 9 14 14 9 13 4 6 4-2 12-12 10-13 11-18 8-18 6-21 3-20v-27l-3-20-6-21-8-18-10-16-10-13-18-18-15-11-14-8-15-7-18-6-22-4h-34l-22 4-14 4-9-2-5-6-1-3v-33l-3-26-6-25-7-19-12-25-12-18-10-13-12-13-10-10-14-11-14-10-18-10-20-9-19-6-17-4-21-3zm-102 683-3 5-7 21-5 16-6 4-4 1h-44l-1 61 6 1 41 1 5 3 3 3 8 29 6 16 9 19 8 13 1 9-4 8-12 11-18 18 6 7 28 28 7 8h4l29-29 7-3 8 1 19 11 21 10 24 8 13 4 5 5 1 3 1 46 3 1h58l1-44 3-7 5-4 26-7 19-7 16-8 16-9h9l7 4 7 8 21 21 4-2 26-26 8-7 6-6-1-4-29-29-2-4v-9l6-11 8-14 7-15 9-27 3-11 5-5 6-2h44l1-61-7-1-40-1-6-4-3-5-6-23-7-19h-68l1 5 8 14 6 15 5 20 2 15v23l-3 20-6 20-8 18-9 14-8 10-9 10-11 10-15 10-17 9-20 7-14 3-8 1h-32l-18-3-24-8-19-10-11-8-13-11-7-7-13-17-9-16-6-15-5-17-3-21v-22l3-20 6-20 8-18 5-8v-3zm105 0-10 11-8 13-6 12-5 15-3 16v27l4 20 8 20 10 16 11 12 9 9 13 9 15 8 18 6 19 3h18l19-3 18-6 17-9 12-9 8-7 7-8 8-11 8-14 6-16 4-20v-27l-4-20-6-16-8-14-9-12-5-5z" fill="#113A62"></path>
<path transform="translate(691,423)" d="m0 0h11l17 2 19 5 16 7 15 9 14 12 11 12 10 15 9 19 6 19 6 5h13l16-1 16 2 16 5 13 7 13 10 14 15 5 2 11-1h24l17 4 17 8 12 9 12 12 9 14 6 15 3 12v28l-4 16-8 16-6 9-11 12-12 9-14 7-13 4-12 2h-445l-16-3-17-7-12-8-12-11-9-12-8-16-4-13-1-6v-25l4-17 8-17 9-12 10-10 15-10 11-5 14-4 6-1h23l17 4h8l5-3 3-3 1-3 1-29 4-20 7-19 8-14 9-12 11-12 12-10 15-9 16-7 18-5z" fill="#779CAC"></path>
<path transform="translate(662,130)" d="m0 0h20l21 3 22 6 19 8 17 9 13 9 11 9 13 12 12 14 12 18 10 19 7 19 5 19 3 22v27l-3 9-7 5h-9l-5-3-4-4-1-3-1-33-3-18-5-17-6-15-8-15-12-16-9-10-8-8-13-10-15-9-17-8-20-6-18-3-17-1-7-2-5-5-2-4v-8l4-6z" fill="#113A63"></path>
<path transform="translate(615,680)" d="m0 0h224l8 4 3 5 1 6-2 7-6 5-2 1h-228l-6-4-3-5v-10l6-7z" fill="#103962"></path>
<path transform="translate(786,805)" d="m0 0h9l7 4 32 32 4 6 1 7-3 7-7 8-28 28-5 3h-10l-6-4-3-4-1-7 3-8 24-24-6-7-18-18-3-8 2-8 4-5z" fill="#123B63"></path>
<path transform="translate(685,805)" d="m0 0h9l6 4 3 4 1 9-3 6-24 24 6 7 19 19 2 5-1 9-6 7-3 1h-10l-8-7-33-33-1-2v-11l7-8 32-32z" fill="#103962"></path>
<path transform="translate(748,796)" d="m0 0h7l6 3 4 6 1 8-23 86-4 6-3 3-3 1h-9l-6-4-4-8 1-8 22-82 3-6 5-4z" fill="#123B63"></path>
<path transform="translate(876,680)" d="m0 0h23l8 4 3 5 1 6-2 7-6 5-2 1h-27l-6-4-3-5v-9l4-6 4-3z" fill="#103962"></path>
</svg>