<?xml version="1.0" encoding="UTF-8"?>
<svg class="ugb-custom-icon" version="1.1" viewBox="0 0 1200 1200" xmlns="http://www.w3.org/2000/svg">
<path transform="translate(436,361)" d="m0 0h374l17 4 14 7 13 10 8 9 8 13 5 14 2 10v367l-3 14-5 12-6 10-9 10-9 8-14 8-16 5-7 1h-370l-15-3-16-7-11-8-11-11-7-11-5-11-3-10-1-7v-367l4-16 8-16 6-8 5-6 10-8 15-8 13-4zm2 22-12 3-11 6-10 9-7 9-5 11-2 9v364l3 11 6 12 9 10 11 8 10 4 9 2h368l12-3 12-6 10-9 6-7 6-13 2-8v-366l-4-13-4-8-9-11-10-7-11-5-9-2h-110l-1 122-4 7-5 4-5 2h-8l-8-4-16-16-8-7-19-19-4 2-38 38-8 5-3 1h-8l-8-4-4-5-2-5-1-121z" fill="#113A62"></path>
<path transform="translate(1024,27)" d="m0 0h140l6 3 3 6v323l-4 6-4 2h-143l-11-4-8-7-6-12-1-6-35-1-10-3-9-6-6-8-2-5-56-1-16-2-16-5-16-8-23-14-12-4-101-1-12-3-10-6-8-7-7-11-3-9-1-6v-9l1-6-16 4-52 15-129 37-5 1h-14l-11-4-9-7-6-8-4-10v-17l4-11 9-10 11-8 32-21 20-13 19-12 24-15 32-19 24-14 29-16 33-17 28-13 28-11 22-7 19-4h22l20 5 23 8 30 13 23 11 16 8 13 4 7 1h36l1-12 6-12 8-7 10-4h39l1-9 4-8 6-7 9-5zm1 22-6 4-1 2v284l4 5 2 1h127v-296zm-281 16-22 5-28 10-27 12-23 11-19 10-22 12-24 14-21 12-26 16-24 15-22 14-42 28-10 7-4 6-1 7 3 8 6 5 2 1h11l206-59 20-6 10-4 5-1h84l4 2 2 4v8l-5 5-4 1-80 1-8 4-7 8-3 9 1 11 6 10 7 5 6 2 101 1 16 4 13 7 19 12 16 7 9 2 9 1h54l1-1v-175l-37-1-17-3-12-4-16-8-34-16-27-11-19-6-8-2zm216 15-5 5v224l5 5 2 1h34v-235z" fill="#123A63"></path>
<path transform="translate(35,833)" d="m0 0h142l10 3 9 7 6 10 2 9 33 1 10 2 10 6 6 8 3 7 66 1 17 4 16 7 26 16 9 4 4 1 101 1 12 3 10 5 8 7 7 10 4 11 1 6v9l-1 6 16-4 181-52 5-1h14l11 4 9 7 6 8 4 10v17l-4 11-9 10-11 8-35 23-17 11-22 14-21 13-20 12-22 13-23 13-24 13-27 14-30 14-28 11-22 7-19 4h-22l-21-5-27-10-29-13-21-10-16-8-11-3-7-1h-36l-2 15-6 10-7 6-10 4h-39l-1 9-4 8-6 7-12 6-5 1h-140l-5-3-3-3-1-3v-322l3-6zm14 22v296h126l5-3 2-4v-283l-4-5-2-1zm155 30v235h36l5-5v-224l-5-5-2-1zm63 24v175l35 1 19 3 14 5 30 15 27 12 26 10 19 5 12 1 18-3 20-6 22-8 35-16 26-13 23-13 22-12 27-16 20-12 24-15 22-14 23-15 27-18 9-7 3-5 1-6-3-9-6-5-2-1h-10l-227 65-9 4-4 1h-87l-4-4-1-2v-7l4-5 2-1 78-1 8-2 6-4 6-7 3-8v-8l-3-9-5-6-6-4-7-2-101-1-12-3-16-8-21-13-12-5-12-3z" fill="#123B63"></path>
<path transform="translate(570,383)" d="m0 0h106v109l-4-2-37-37-6-3-7-1-9 3-8 7-34 34h-1z" fill="#779CAC"></path>
<path transform="translate(552,664)" d="m0 0h7l8 7 13 15 11 13 1 2v8l-3 5-3 2h-9l-7-6-3-4-1 66-4 6-4 2-8-1-5-5-1-3-1-65-8 9-2 1h-8l-6-5-1-2v-7l4-6 26-30z" fill="#113A62"></path>
<path transform="translate(455,664)" d="m0 0h7l5 3 13 15 12 14 4 7-1 7-4 5-2 1h-8l-8-7-3-3-1 67-5 6-8 1-5-3-3-4-1-67-7 8-4 2h-8l-5-4-2-5 1-7 26-30z" fill="#113A62"></path>
<path transform="translate(1074,66)" d="m0 0 12 1 10 4 10 9 5 8 3 10v11l-3 10-6 9-9 8-11 4-9 1-11-2-10-5-5-4-7-10-3-9v-15l4-11 6-8 10-7 8-3zm1 22-7 3-5 6-1 2v9l4 6 5 4 7 1 8-3 5-6 1-3v-7l-3-6-6-5z" fill="#123A63"></path>
<path transform="translate(122,1059)" d="m0 0 13 2 10 5 9 9 5 11 1 4v14l-4 11-7 9-9 6-8 3-12 1-12-3-9-6-8-9-4-9-1-5v-11l3-10 6-9 9-8 10-4zm0 22-8 3-5 6-1 3v7l3 6 6 5 8 1 7-3 5-6 1-2v-9l-4-6-5-4z" fill="#113A63"></path>
<path transform="translate(679,694)" d="m0 0h141l5 3 3 5v6l-4 6-4 2h-141l-6-4-2-3v-8l5-6z" fill="#103962"></path>
<path transform="translate(715,752)" d="m0 0h106l4 2 3 5v7l-5 6-2 1h-106l-5-4-1-2v-9l4-5z" fill="#103962"></path>
</svg>