<?xml version="1.0" encoding="UTF-8"?>
<svg class="ugb-custom-icon" version="1.1" viewBox="0 0 1200 1200" xmlns="http://www.w3.org/2000/svg" aria-hidden="true" width="32" height="32">
 <path fill="#34A3D3" d="m248.4 417.6h70.801c14.398 0 26.398-12 26.398-27.602l0.003906-18 13.199 1.1992 44.398 48-4.8008 2.3984c-6 2.3984-9.6016 8.3984-9.6016 14.398v278.4c0 8.3984 7.1992 16.801 16.801 16.801h379.2c8.3984 0 16.801-7.1992 16.801-16.801l0.003906-385.2 62.398-22.801c12 18 33.602 30 56.398 30 37.199 0 68.398-31.199 68.398-68.398s-31.199-68.398-68.398-68.398c-37.199 0-68.398 31.199-68.398 68.398v8.3984l-62.398 22.801-28.801-32.398 27.602-32.398c2.3984-2.3984 3.6016-6 3.6016-9.6016v-32.398h10.801c13.199 0 24-10.801 24-24l-0.003907-54.004c0-13.199-10.801-24-24-24h-52.801c-13.199 0-24 10.801-24 24v52.801c0 13.199 10.801 24 24 24h8.3984v26.398l-20.398 25.199-18-21.598c-4.8008-4.8008-12-7.1992-19.199-3.6016l-72 33.602v-93.602l31.199 0.003906c16.801 0 30-13.199 30-30v-93.602c0-16.801-13.199-30-30-30h-92.398c-16.801 0-30 13.199-30 30v92.398c0 16.801 13.199 30 30 30h30v109.2l-61.199 28.801-54-43.199c3.6016-8.3984 6-18 6-28.801 0-37.199-31.199-68.398-68.398-68.398-37.199 0-68.398 31.199-68.398 68.398 0 37.199 31.199 68.398 68.398 68.398 15.602 0 30-4.8008 42-14.398l55.199 44.398v44.398l-81.602 38.398-56.398-60c-2.3984-3.6016-7.1992-4.8008-10.801-4.8008l-21.602-1.1992v-19.199c0-14.398-12-27.602-26.398-27.602h-70.801c-14.398 0-27.602 12-27.602 27.602v70.801c0 14.406 12 26.406 26.398 26.406zm673.2-183.6c20.398 0 36 15.602 36 36s-15.602 36-36 36c-20.398 0-36-15.602-36-36 0-19.199 15.598-36 36-36zm-160.8-109.2h36v36h-36zm-192-86.402h88.801v88.801h-88.801zm-146.4 410.4 142.8-67.199v318h-142.8zm219.6 250.8h-44.398v-301.2l44.398 49.199zm127.2 0h-44.398v-423.6l44.398 49.199zm-349.2-438c-20.398 0-36-15.602-36-36 0-20.398 15.602-36 36-36s36 15.602 36 36c0 20.398-16.801 36-36 36zm129.6 64.797 142.8-67.199v440.4h-18l-0.003906-258c0-3.6016-1.1992-8.3984-4.8008-10.801l-76.801-85.199c-4.8008-4.8008-12-7.1992-19.199-3.6016l-24 12zm-295.2-1.1992h58.801v58.801h-58.801zm806.4 374.4h-196.8c-8.3984 0-16.801 7.1992-16.801 16.801 0 136.8-110.4 247.2-247.2 247.2s-247.2-110.4-247.2-247.2c0-8.3984-7.1992-16.801-16.801-16.801h-196.8c-8.3984 0-16.801 7.1992-16.801 16.801 0 21.602 1.1992 43.199 4.8008 64.801 1.1992 6 6 12 12 13.199l48 13.199c21.602 6 37.199 20.398 44.398 42 2.3984 8.3984 6 16.801 9.6016 25.199 8.3984 20.398 8.3984 40.801-2.3984 60l-25.199 45.602c-3.6016 6-2.3984 12 1.1992 18 14.398 19.199 30 38.398 48 56.398 16.801 16.801 36 33.602 56.398 48 4.8008 3.6016 12 3.6016 18 1.1992l45.602-25.199c19.199-10.801 39.602-12 60-2.3984 8.3984 3.6016 16.801 7.1992 25.199 9.6016 21.602 7.1992 36 22.801 42 44.398l13.199 48c1.1992 6 7.1992 10.801 13.199 12 21.602 2.3984 43.199 4.8008 64.801 4.8008 27.602 0 56.398-2.3984 84-7.1992 6-1.1992 10.801-6 13.199-12l14.398-52.801c6-20.398 19.199-36 38.398-44.398 6-2.3984 12-4.8008 16.801-7.1992 20.398-9.6016 42-8.3984 61.199 2.3984l43.199 24c6 3.6016 13.199 2.3984 18-1.1992 16.801-13.199 33.602-27.602 48-42 21.602-21.602 40.801-44.398 57.602-69.602 3.6016-4.8008 3.6016-12 1.1992-16.801l-27.602-49.199c-10.801-18-12-37.199-3.6016-57.602 1.1992-1.1992 1.1992-3.6016 2.3984-6 8.3984-20.398 22.801-34.801 44.398-40.801l49.199-13.199c6-1.1992 10.801-7.1992 12-13.199 3.6016-22.801 4.8008-46.801 4.8008-70.801-1.1875-10.801-8.3906-18-17.988-18zm-19.199 72-39.602 10.801c-31.199 8.3984-55.199 30-66 61.199 0 1.1992-1.1992 2.3984-1.1992 4.8008-10.801 28.801-9.6016 58.801 6 85.199l22.801 40.801c-14.398 20.398-31.199 39.602-48 57.602-10.801 12-24 22.801-36 32.398l-33.602-19.199c-28.801-16.801-61.199-18-91.199-3.6016-4.8008 2.3984-9.6016 4.8008-15.602 7.1992-28.801 12-49.199 34.801-57.602 64.801l-12 43.199c-39.602 6-79.199 7.1992-118.8 2.3984l-10.801-37.199c-8.3984-32.398-31.199-55.199-62.398-67.199-7.1992-2.3984-15.602-6-22.801-9.6016-30-13.199-61.199-12-88.801 4.8008l-36 20.398c-15.602-12-30-25.199-44.398-38.398-14.398-14.398-26.398-28.801-38.398-44.398l20.398-36c15.602-27.602 18-60 4.8008-88.801-3.6016-8.3984-6-15.602-9.6016-22.801-10.801-31.199-34.801-52.801-67.199-61.199l-37.199-10.801c-2.3984-13.199-2.3984-24-3.5977-36h165.6c9.5977 147.6 130.8 264 279.6 264s271.2-116.4 279.6-264h164.4c0 13.199-1.1992 26.398-2.3984 39.602z"></path>
</svg>