<?xml version="1.0" encoding="UTF-8"?>
<svg class="ugb-custom-icon" version="1.1" viewBox="0 0 512 512" xmlns="http://www.w3.org/2000/svg" aria-hidden="true" width="32" height="32">
 <path d="m126.46 206.7c-9.7656-9.7656-23.516-14.434-37.203-12.629-13.691 1.8008-25.766 9.8672-32.668 21.828-6.9062 11.957-7.8555 26.445-2.5703 39.203 5.2812 12.758 16.199 22.332 29.535 25.906 13.34 3.5742 27.582 0.74219 38.535-7.6641 10.957-8.4023 17.379-21.426 17.379-35.234 0.015625-11.785-4.6641-23.09-13.008-31.41zm334.89 67.227c-0.003906-13.809-6.4258-26.828-17.379-35.23-10.957-8.4062-25.195-11.238-38.531-7.6641-13.336 3.5742-24.25 13.148-29.531 25.902-5.2852 12.758-4.3359 27.246 2.5664 39.203 6.9062 11.953 18.977 20.02 32.664 21.824 13.688 1.8008 27.438-2.8633 37.199-12.625 8.3438-8.3242 13.027-19.629 13.012-31.41zm25.039-203.91c0-13.809-6.4219-26.832-17.379-35.242-10.957-8.4062-25.199-11.238-38.539-7.6641-13.34 3.5742-24.258 13.152-29.543 25.91-5.2852 12.758-4.332 27.25 2.5703 39.211 6.9062 11.957 18.98 20.027 32.676 21.828 13.691 1.8008 27.441-2.8672 37.207-12.633 8.3438-8.3203 13.027-19.625 13.008-31.41zm-371.96 371.96c0-13.812-6.4258-26.836-17.379-35.242-10.957-8.4062-25.203-11.238-38.539-7.6641-13.34 3.5742-24.258 13.148-29.543 25.906-5.2852 12.762-4.3359 27.25 2.5703 39.211 6.9062 11.961 18.98 20.027 32.672 21.832 13.691 1.8008 27.445-2.8672 37.207-12.633 8.3438-8.3242 13.027-19.629 13.012-31.41zm-3.8438-40.574c-5.6055-5.6133-12.312-10.004-19.703-12.891l190.58-190.58c1.8555-1.8555 2.4062-4.6484 1.3945-7.0703-1.0078-2.4219-3.3789-3.9922-6.0039-3.9844l-82.355-5.1211v0.003907c-6.293-0.44141-12.469 1.8906-16.895 6.3867l-29.098 29.098c-5.8438-14.93-17.656-26.742-32.59-32.59l41.555-41.559c4.9141-5.1172 11.871-7.75 18.945-7.168l154.35 9.6172c1.8438 0.10938 3.6445-0.57422 4.9531-1.8789l52.789-52.781c5.8516 14.93 17.664 26.742 32.594 32.594l-190.59 190.59c-1.8555 1.8555-2.4062 4.6484-1.3945 7.0703 1.0078 2.4219 3.3789 3.9922 6.0039 3.9844l82.355 5.1211v-0.003907c6.293 0.44531 12.469-1.8906 16.895-6.3867l29.102-29.102c5.8438 14.934 17.656 26.746 32.59 32.594l-41.555 41.555v-0.003907c-4.9102 5.1211-11.871 7.7578-18.941 7.168l-154.36-9.5977c-1.8438-0.11328-3.6484 0.57031-4.9531 1.8789l-52.785 52.77c-2.8828-7.3906-7.2734-14.102-12.887-19.707zm343.93-331.39c0 5.9805-4.2266 11.125-10.09 12.293-5.8633 1.168-11.738-1.9727-14.023-7.4961-2.2891-5.5234-0.35938-11.895 4.6133-15.219 4.9727-3.3203 11.598-2.668 15.828 1.5586 2.3516 2.3477 3.6719 5.5391 3.6719 8.8633zm5.4883-18.023c5.6055 5.5977 8.2891 13.484 7.2617 21.34-1.0273 7.8555-5.6523 14.785-12.512 18.754-6.8555 3.9648-15.168 4.5156-22.492 1.4883-7.3203-3.0234-12.816-9.2852-14.875-16.934-2.0547-7.6523-0.43359-15.824 4.3828-22.113 4.8203-6.2891 12.289-9.9766 20.211-9.9844 6.7617-0.007813 13.25 2.6836 18.023 7.4727zm-352.41 186.11c-0.003906 5.9805-4.2305 11.125-10.094 12.289-5.8633 1.1641-11.734-1.9766-14.023-7.5-2.2852-5.5234-0.35156-11.895 4.6211-15.215 4.9727-3.3242 11.598-2.668 15.824 1.5586 2.3555 2.3477 3.6758 5.5391 3.6719 8.8672zm5.4883-18.027c5.6055 5.6016 8.2852 13.496 7.25 21.352-1.0352 7.8594-5.6641 14.789-12.527 18.75-6.8633 3.9648-15.18 4.5117-22.5 1.4805-7.3242-3.0352-12.82-9.2969-14.871-16.953s-0.42578-15.828 4.3984-22.117c4.8242-6.2891 12.297-9.9766 20.223-9.9766 6.7617-0.007812 13.25 2.6758 18.027 7.4648zm316.39 53.844c0.003906 5.9844-4.2227 11.137-10.094 12.305-5.8672 1.168-11.746-1.9688-14.039-7.5-2.2891-5.5273-0.35938-11.906 4.6172-15.23 4.9766-3.3242 11.605-2.6758 15.84 1.5547 2.3594 2.3477 3.6797 5.543 3.6758 8.8711zm5.4844-18.027v-0.003906c5.6055 5.6055 8.2852 13.496 7.25 21.355s-5.6641 14.789-12.527 18.75c-6.8633 3.9648-15.18 4.5078-22.504 1.4766-7.3203-3.0352-12.816-9.3008-14.867-16.957-2.0508-7.6523-0.42578-15.828 4.3984-22.117 4.8281-6.2852 12.301-9.9727 20.227-9.9727 6.7617-0.007812 13.246 2.6797 18.023 7.4648zm-352.41 186.11v-0.003906c0 5.9805-4.2227 11.125-10.09 12.293-5.8633 1.168-11.734-1.9727-14.023-7.4961-2.2891-5.5234-0.35547-11.895 4.6172-15.219 4.9727-3.3203 11.598-2.668 15.824 1.5586 2.3555 2.3516 3.6758 5.5391 3.6719 8.8633zm5.5078-18.07c5.6016 5.6016 8.2773 13.492 7.2383 21.344-1.0352 7.8555-5.6641 14.777-12.527 18.738-6.8594 3.957-15.172 4.5039-22.488 1.4688-7.3203-3.0312-12.812-9.293-14.859-16.945-2.0508-7.6523-0.42578-15.824 4.3945-22.105 4.8242-6.2852 12.293-9.9727 20.215-9.9727 6.7656-0.007813 13.254 2.6797 18.027 7.4727z" fill="#34A3D3" fill-rule="evenodd"></path>
</svg>