<?xml version="1.0" encoding="UTF-8"?>
<svg class="ugb-custom-icon" version="1.1" viewBox="0 0 1200 1200" xmlns="http://www.w3.org/2000/svg">
<path transform="translate(1e3 356)" d="m0 0h17l19 2 25 6 20 8 18 10 14 10 10 9 8 7 12 14 10 15 11 21 7 20 4 17 2 14v32l-4 24-5 17-8 18-8 15-10 14-9 10-7 8-14 12-18 12-15 8-18 7-10 3-26 52-4 5-8 4h-9l-8-4-4-5-26-52-21-7-19-9-18-12-10-8-13-12-9-11-9-12-9-16-7-15-6-18-4-20-1-8v-32l4-24 5-17 8-18 8-15 10-14 9-10 7-8 14-12 18-12 15-8 18-7 25-6zm-6 38-17 3-16 5-21 10-14 10-12 11-10 11-10 15-9 19-5 16-3 18v26l3 18 7 21 10 19 9 12 11 12 10 9 15 10 19 9 20 6 8 3 5 5 10 19 4 8 3-4 11-22 4-5 5-3 19-5 17-7 14-8 13-10 10-9 9-11 7-10 10-19 6-18 3-15 1-10v-16l-3-21-5-17-10-21-9-13-12-14-14-12-18-11-16-7-13-4-17-3z" fill="#113A62"></path>
<path transform="translate(172,19)" d="m0 0h31l20 3 21 6 21 9 17 10 13 10 12 11 8 8 13 17 11 19 8 19 6 21 3 20v31l-3 20-6 21-9 21-10 17-10 13-11 12-8 8-17 13-19 11-19 8-13 4-10 19-17 34-8 7-9 2-8-2-8-7-26-52-8-3-21-8-15-8-12-8-10-8-10-9-9-9-13-17-10-17-8-18-6-20-3-15-1-9v-31l3-20 6-21 8-19 9-16 12-16 11-12 8-8 17-13 19-11 19-8 21-6zm7 37-21 3-17 5-21 10-13 9-10 9-5 4-9 11-9 13-8 16-5 13-4 18-1 7v27l3 17 5 16 7 16 9 14 8 10 7 8 8 7 14 10 19 10 18 6 12 3 7 6 13 26h3l13-26 7-6 21-6 15-6 16-9 10-8 10-9 11-12 10-15 8-17 5-15 3-16 1-10v-15l-3-21-5-17-7-16-9-15-11-13-11-11-15-11-17-9-17-6-18-4-10-1z" fill="#113A62"></path>
<path transform="translate(169,713)" d="m0 0h37l22 4 17 5 18 8 13 7 13 9 11 9 17 17 11 15 9 15 8 17 6 19 4 19 1 8v32l-3 20-6 21-9 21-9 15-8 11-11 13-9 9-14 11-15 10-23 11-19 6-27 54-6 5-4 2h-11l-8-5-5-8-24-48-24-8-23-12-14-10-14-12-9-9-11-14-10-16-8-16-7-19-5-23-1-9v-32l4-24 8-24 9-19 12-18 9-11 17-17 16-12 16-9 15-7 18-6 19-4zm6 37-18 3-16 5-16 7-16 10-14 12-11 12-12 18-8 17-6 21-2 13v26l3 18 5 16 6 14 10 16 9 11 13 13 15 11 17 9 21 7 11 3 4 3h2l2 5 12 24h3l13-26 5-5 8-3 18-5 21-10 12-8 14-12 11-12 10-15 8-16 6-18 3-15 1-10v-16l-3-21-5-17-10-21-10-14-9-10-10-10-14-10-21-11-19-6-19-3z" fill="#103962"></path>
<path transform="translate(1006,431)" d="m0 0h13l14 2 18 6 13 7 10 8 7 6 8 10 9 15 6 18 2 10v24l-4 17-6 15-10 15-8 9-14 11-15 8-16 5-14 2h-13l-14-2-18-6-16-9-10-9-5-5-7-8-8-13-6-16-3-14v-24l4-18 6-14 7-11 12-14 13-10 15-8 16-5z" fill="#103962"></path>
<path transform="translate(174,788)" d="m0 0h27l17 4 14 6 12 8 10 9 7 7 9 14 6 13 4 14 1 6v24l-4 18-7 16-9 13-11 12-14 10-14 7-13 4-12 2h-19l-16-3-16-6-13-8-11-9-9-10-9-14-6-14-4-18v-24l4-17 5-12 6-11 8-10 11-11 15-10 17-7z" fill="#103962"></path>
<path transform="translate(176,94)" d="m0 0h23l15 3 15 6 12 7 10 8 9 9 7 10 8 16 4 12 2 11v23l-4 18-7 16-8 12-9 10-9 8-13 8-14 6-18 4h-23l-18-4-16-7-12-8-12-11-8-10-8-14-5-13-3-15v-23l3-15 6-15 7-12 8-10 9-9 10-7 16-8 16-5zm6 37-16 4-11 6-10 9-7 10-5 12-2 10v11l4 16 6 11 9 10 10 7 12 5 10 2h11l16-4 11-6 10-9 7-10 5-12 2-10v-11l-4-16-6-11-9-10-10-7-12-5-10-2z" fill="#113A62"></path>
<path transform="translate(1011,468)" d="m0 0 16 2 13 5 11 8 8 9 8 16 2 9v16l-3 12-7 13-10 11-13 8-13 4-12 1-13-2-13-5-11-8-8-9-8-16-2-9v-16l3-12 7-13 10-11 11-7 10-4z" fill="#779CAC"></path>
<path transform="translate(178,825)" d="m0 0h19l13 4 11 6 9 8 7 10 5 12 2 9v15l-3 12-6 12-11 12-11 7-10 4-10 2h-11l-16-4-11-6-10-9-6-8-5-10-3-12v-16l4-14 6-11 8-9 10-7 11-5z" fill="#779CAC"></path>
<path transform="translate(882,787)" d="m0 0h261l1 1v37h-263v-37z" fill="#123B63"></path>
<path transform="translate(56,450)" d="m0 0h263v37l-1 1h-261l-1-1z" fill="#123B63"></path>
<path transform="translate(56,1144)" d="m0 0h263v37h-263z" fill="#103962"></path>
<path transform="translate(511,1018)" d="m0 0 4 4 12 19 5 9-17 11-13 8h-2l-14-22-5-8v-2l19-12z" fill="#123B63"></path>
<path transform="translate(573,979)" d="m0 0 3 1 15 24 3 5v2l-19 12-12 7-11-17-9-14 4-4 18-11z" fill="#123B63"></path>
<path transform="translate(636,939)" d="m0 0 4 4 12 19 5 9-22 14-8 5-3-1-11-18-7-11 1-3 18-11z" fill="#123B63"></path>
<path transform="translate(697,900)" d="m0 0 4 1 15 24 3 5v2l-18 11-12 8-4-4-13-21-4-7 15-10z" fill="#123B63"></path>
<path transform="translate(386,1097)" d="m0 0 4 4 12 19 5 9-15 10-14 9h-3l-12-19-7-11v-2l18-11z" fill="#123B63"></path>
<path transform="translate(448,1058)" d="m0 0 3 1 15 24 3 5-1 3-18 11-11 7-4-4-11-18-6-10 22-14z" fill="#123B63"></path>
<path transform="translate(822,821)" d="m0 0 4 1 11 18 7 11-5 5-18 11-6 4h-3l-12-19-7-12 10-7z" fill="#123B63"></path>
<path transform="translate(761,860)" d="m0 0 4 4 15 24 1 4-10 7-19 12-3-1-11-18-7-11 1-3 24-15z" fill="#123B63"></path>
<path transform="translate(812,743)" d="m0 0 10 5 21 13-1 4-17 29-10-5-21-13 1-5z" fill="#123B63"></path>
<path transform="translate(750,706)" d="m0 0 5 2 25 15v4l-17 29-4-1-27-16-1-2 17-29z" fill="#123B63"></path>
<path transform="translate(625,631)" d="m0 0 5 2 25 15 1 3-18 30-4-1-27-16-1-2 18-30z" fill="#123B63"></path>
<path transform="translate(562,594)" d="m0 0 5 1 26 16 1 2-18 30-2 1-29-17-1-3z" fill="#123B63"></path>
<path transform="translate(437,519)" d="m0 0 5 1 26 16 1 2-17 29-3 2-29-17v-4z" fill="#123B64"></path>
<path transform="translate(687,669)" d="m0 0 5 1 26 16-1 5-17 28-10-5-21-13 1-4 16-27z" fill="#123B63"></path>
<path transform="translate(500,556)" d="m0 0 5 2 25 15 1 4-17 28-4 1-28-17 1-5z" fill="#123B63"></path>
<path transform="translate(375,481)" d="m0 0 12 6 19 12-1 5-17 28-11-6-20-12 1-4z" fill="#123B63"></path>
</svg>