<?xml version="1.0" encoding="UTF-8"?>
<svg class="ugb-custom-icon" version="1.1" viewBox="0 0 1200 1200" xmlns="http://www.w3.org/2000/svg">
<path transform="translate(653,497)" d="m0 0h14l12 4 9 6 9 10 5 12 1 6v20h163v-20l3-10 6-10 7-7 10-6 12-3h9l12 3 9 5 7 6 7 11 3 9 1 7v15h41l17 3 16 6 14 9 12 11 9 12 8 16 4 15 1 7v375l-4 20-6 15-10 16-14 15-14 10-14 7-16 5-12 2h-399l-17-3-16-6-11-6-12-9-12-12-7-10-8-15-5-15-2-11v-382l4-16 5-12 7-11 10-12 14-11 19-9 12-3 7-1h44v-21l4-13 6-9 7-7 12-6zm2 26-6 3-6 7-1 3v77l5 8 6 4 9 1 8-3 6-7 2-9v-67l-3-9-4-5-6-3zm251 1-8 3-5 6-2 4v74l3 6 7 6 3 1h10l8-5 4-6 1-5v-68l-3-8-7-6-5-2zm-329 56-12 2-12 5-11 7-9 9-7 11-4 9-3 16v32l1 1h528l1-1v-34l-3-14-4-10-7-10-6-7-13-9-12-5-10-2h-42l-1 28-2 11-6 12-7 8-10 6-11 3h-12l-11-3-10-6-8-8-6-13-1-5-1-33h-163l-1 31-2 11-6 12-9 9-12 6-15 2-11-2-14-7-7-7-6-11-2-8-1-36zm-57 116v315l4 15 7 14 9 11 10 9 14 8 11 4 11 2h396l14-3 12-5 10-6 10-9 8-9 8-16 3-9 2-12v-308l-1-1z" fill="#113A63"></path>
<path transform="translate(202,101)" d="m0 0h523l16 4 12 5 14 9 10 9 10 13 7 14 4 12 2 12v311l-4 6-5 3h-7l-6-4-3-5-1-309-4-16-6-12-11-12-10-7-12-5-8-2h-520l-14 4-11 6-12 11-7 10-5 13-2 9v790l4 16 7 13 10 11 13 8 10 4 10 2 219 1 5 3 4 5v9l-6 7-3 1h-221l-18-4-16-7-14-10-9-9-9-13-6-12-4-13-2-13v-787l2-14 5-15 7-13 8-10 10-10 15-10 15-6z" fill="#113A62"></path>
<path transform="translate(734,902)" d="m0 0h100l6 4 3 6v98l-3 6-4 3-3 1h-98l-6-3-4-6v-100l4-6z" fill="#103962"></path>
<path transform="translate(734,750)" d="m0 0h100l6 4 3 6v98l-3 6-4 3-3 1h-98l-6-3-4-6v-100l4-6z" fill="#103962"></path>
<path transform="translate(583,750)" d="m0 0h99l6 3 3 4 1 4v96l-3 7-7 4h-99l-6-4-3-4v-102l6-7z" fill="#113A62"></path>
<path transform="translate(886,902)" d="m0 0h99l6 3 3 4 1 4v96l-4 8-6 3h-99l-6-4-3-4v-102l6-7z" fill="#113A62"></path>
<path transform="translate(583,902)" d="m0 0h99l6 3 3 4 1 4v96l-4 8-6 3h-99l-6-4-3-4v-102l6-7z" fill="#113A62"></path>
<path transform="translate(886,750)" d="m0 0h99l6 3 3 4 1 4v96l-4 8-6 3h-99l-6-4-3-4v-102l6-7z" fill="#113A62"></path>
<path transform="translate(315,778)" d="m0 0h13l7 4 2 4v9l-3 5-6 3-17 2-16 5-12 7-12 11-9 14-5 13-2 9v20l4 16 8 15 9 10 8 7 12 7 17 5h24l17-5 12-7 10-9 7-8 8-15 4-16 1-12 3-6 3-3 3-1h8l5 3 3 5v16l-3 15-5 13-8 15-11 13-10 9-14 9-14 6-17 4h-28l-17-4-16-7-13-9-12-11-9-12-6-10-6-16-3-15v-24l4-18 7-16 7-11 11-12 10-9 15-9 16-6z" fill="#113A63"></path>
<path transform="translate(317,180)" d="m0 0h11l5 3 4 5v9l-4 6-4 2-18 2-13 4-13 7-10 8-7 8-8 14-4 13-1 5v20l4 16 6 12 7 9 5 5 8 7 16 8 12 3 16 1 13-2 14-5 10-6 11-9 8-11 6-12 4-16 1-12 3-6 6-4h7l6 3 3 5v16l-4 18-5 12-8 14-9 11-11 10-14 9-14 6-17 4-10 1h-9l-19-3-15-5-16-9-11-9-8-8-9-13-7-14-5-17-1-7v-23l3-15 6-16 9-15 11-12 9-8 13-8 16-7 13-3z" fill="#113A63"></path>
<path transform="translate(318,479)" d="m0 0h10l7 4 2 4v9l-3 5-6 3-17 2-13 4-12 6-11 9-7 8-8 14-4 13-1 5v20l4 16 8 15 7 8v2l4 2 9 7 14 7 12 3h24l17-5 12-7 10-9 7-8 8-15 4-16 1-12 3-6 5-4h10l5 4 2 4v16l-4 18-5 12-6 11-10 13-7 7-14 10-16 8-14 4-15 2-17-1-19-5-16-8-11-8-10-9-10-13-8-16-5-15-2-13v-18l4-20 7-16 9-14 11-12 13-10 15-8 15-5z" fill="#123A63"></path>
<path transform="translate(484,239)" d="m0 0h204l6 4 3 5v7l-3 5-6 4h-204l-6-4-3-5v-7l4-6z" fill="#103962"></path>
<path transform="translate(408,486)" d="m0 0h8l6 4 3 6-1 8-8 10-12 14-9 11-12 14-9 11-12 14-22 26-7 8-7 3-8-2-9-9-8-7-17-17-6-8-1-6 3-7 5-4 7-1 6 3 25 25 4-2 9-11 11-13 9-11 12-14 9-11 11-13 9-11 7-8z" fill="#123B63"></path>
<path transform="translate(407,785)" d="m0 0h9l6 4 3 6-1 8-9 11-22 26-9 11-12 14-22 26-9 11-9 10-7 2-7-2-11-11-8-7-14-14-7-9-1-6 3-7 5-4 2-1 9 1 27 27 3-1 9-11 12-14 9-11 11-13 9-11 12-14 9-11 8-9z" fill="#123B63"></path>
<path transform="translate(408,187)" d="m0 0h8l6 4 3 7-1 7-8 10-12 14-9 11-12 14-9 11-12 14-9 11-12 14-9 10-8 2-7-3-17-16-17-17-5-7-1-6 3-7 5-4 6-1 7 3 25 25 4-2 9-11 12-14 9-11 11-13 9-11 11-13 9-11 7-8z" fill="#123B63"></path>
<path transform="translate(598,775)" d="m0 0h69v69h-69z" fill="#779CAC"></path>
<path transform="translate(901,775)" d="m0 0h69v69h-68l-1-1z" fill="#779CAC"></path>
<path transform="translate(598,927)" d="m0 0h69v68l-1 1h-67l-1-1z" fill="#779CAC"></path>
<path transform="translate(901,927)" d="m0 0h69v68h-69z" fill="#779CAC"></path>
<path transform="translate(750,775)" d="m0 0h68v69h-68z" fill="#779CAC"></path>
<path transform="translate(750,927)" d="m0 0h68v68h-68z" fill="#779CAC"></path>
<path transform="translate(484,289)" d="m0 0h117l6 4 3 5v7l-4 6-5 3h-117l-6-4-3-5v-7l4-6z" fill="#103962"></path>
</svg>