<?xml version="1.0" encoding="UTF-8"?>
<svg class="ugb-custom-icon" version="1.1" viewBox="0 0 512 512" xmlns="http://www.w3.org/2000/svg" aria-hidden="true" width="32" height="32">
 <path d="m416.36 73.141v251.5c0 10.219-8.3594 18.578-18.578 18.578h-285.44c-10.219 0-18.578-8.3594-18.578-18.578v-251.5zm-232.86 375.34h145l-16.121-32.762h-112.76zm-42.422 14.379h229.86c8.3594 0 15.199 6.8398 15.199 15.199s-6.8398 15.199-15.199 15.199l-229.86-0.019531c-8.3594 0-15.199-6.8398-15.199-15.199 0-8.3398 6.8398-15.18 15.199-15.18zm-89.461-385.72c-11.52 0-20.941 9.418-20.941 20.941v282.32c0 11.52 9.418 20.941 20.941 20.941h408.76c11.52 0 20.941-9.418 20.941-20.941v-282.34c0-11.52-9.418-20.941-20.941-20.941h-29.641v27.602h22.98v269.02h-395.44v-269.02h21.121v-27.602zm60.719-58.379h285.46c10.219 0 18.578 8.3594 18.578 18.578v21.441l-322.62-0.019531v-21.441c0-10.219 8.3594-18.559 18.578-18.559zm92.441 12.801h-10.141c-3.9805 0-7.1797 3.2188-7.1797 7.1797 0 3.9805 3.2188 7.1797 7.1797 7.1797h10.141c3.9805 0 7.1797-3.2188 7.1797-7.1797 0.019531-3.9609-3.1992-7.1797-7.1797-7.1797zm-34.102 0h-10.141c-3.9805 0-7.1797 3.2188-7.1797 7.1797 0 3.9805 3.2188 7.1797 7.1797 7.1797h10.141c3.9805 0 7.1797-3.2188 7.1797-7.1797 0.019531-3.9609-3.1992-7.1797-7.1797-7.1797zm-34.078 0h-10.141c-3.9805 0-7.1797 3.2188-7.1797 7.1797 0 3.9805 3.2188 7.1797 7.1797 7.1797h10.141c3.9805 0 7.1797-3.2188 7.1797-7.1797 0-3.9609-3.1992-7.1797-7.1797-7.1797zm245.02 0h-114.66c-3.9805 0-7.1797 3.2188-7.1797 7.1797 0 3.9805 3.2188 7.1797 7.1797 7.1797h114.66c3.9805 0 7.1797-3.2188 7.1797-7.1797 0.019531-3.9609-3.1992-7.1797-7.1797-7.1797zm-125.62 153.64c-12.699 0-22.98 10.301-22.98 22.98 0 12.699 10.301 22.98 22.98 22.98 12.699 0 22.98-10.301 22.98-22.98 0-12.699-10.281-22.98-22.98-22.98zm7.1797-67.859v-18.781c0-3.9805-3.2188-7.1797-7.1797-7.1797-3.9805 0-7.1797 3.2188-7.1797 7.1797v18.781c-19.762 1.5391-37.762 9.3789-51.957 21.52l-13.281-13.281c-2.8008-2.8008-7.3594-2.8008-10.16 0-2.8008 2.8008-2.8008 7.3594 0 10.16l13.281 13.281c-12.141 14.219-19.98 32.199-21.539 51.957h-18.781c-3.9805 0-7.1797 3.2188-7.1797 7.1797 0 3.9805 3.2188 7.1797 7.1797 7.1797h18.781c1.5391 19.762 9.3789 37.762 21.52 51.957l-13.281 13.281c-2.8008 2.8008-2.8008 7.3594 0 10.16 2.8008 2.8008 7.3594 2.8008 10.16 0l13.281-13.281c14.219 12.141 32.199 19.98 51.957 21.539v18.781c0 3.9805 3.2188 7.1797 7.1797 7.1797 3.9805 0 7.1797-3.2188 7.1797-7.1797v-18.781c19.762-1.5391 37.762-9.3789 51.957-21.539l13.281 13.281c2.8008 2.8008 7.3594 2.8008 10.16 0 2.8008-2.8008 2.8008-7.3594 0-10.16l-13.281-13.281c12.141-14.219 19.98-32.199 21.539-51.957h18.781c3.9805 0 7.1797-3.2188 7.1797-7.1797 0-3.9805-3.2188-7.1797-7.1797-7.1797h-18.781c-1.5391-19.762-9.3789-37.738-21.52-51.957l13.281-13.281c2.8008-2.8008 2.8008-7.3594 0-10.16-2.8008-2.8008-7.3594-2.8008-10.16 0l-13.281 13.281c-14.199-12.141-32.199-19.98-51.957-21.52zm-40.859 46.98c2.8008 2.8008 2.8008 7.3594 0 10.16-2.8008 2.8008-7.3594 2.8008-10.16 0l-15.262-15.262c-9.5781 11.559-15.84 25.961-17.301 41.758h21.578c3.9805 0 7.1797 3.2188 7.1797 7.1797 0 3.9805-3.2188 7.1797-7.1797 7.1797h-21.578c1.4609 15.801 7.7188 30.199 17.301 41.758l15.262-15.262c2.8008-2.8008 7.3594-2.8008 10.16 0 2.8008 2.8008 2.8008 7.3594 0 10.16l-15.262 15.262c11.559 9.5781 25.961 15.84 41.758 17.301v-21.578c0-3.9805 3.2188-7.1797 7.1797-7.1797 3.9805 0 7.1797 3.2188 7.1797 7.1797v21.578c15.801-1.4609 30.199-7.7188 41.758-17.301l-15.262-15.262c-2.8008-2.8008-2.8008-7.3594 0-10.16 2.8008-2.8008 7.3594-2.8008 10.16 0l15.262 15.262c9.5781-11.559 15.84-25.961 17.301-41.758h-21.578c-3.9805 0-7.1797-3.2188-7.1797-7.1797 0-3.9805 3.2188-7.1797 7.1797-7.1797h21.578c-1.4609-15.801-7.7188-30.199-17.301-41.758l-15.262 15.262c-2.8008 2.8008-7.3594 2.8008-10.16 0s-2.8008-7.3594 0-10.16l15.262-15.262c-11.559-9.5781-25.961-15.84-41.758-17.301v21.578c0 3.9805-3.2188 7.1797-7.1797 7.1797-3.9805 0-7.1797-3.2188-7.1797-7.1797v-21.578c-15.801 1.4609-30.199 7.7188-41.758 17.301z" fill="#34A3D3" fill-rule="evenodd"></path>
</svg>