<?xml version="1.0" encoding="UTF-8"?>
<svg class="ugb-custom-icon" version="1.1" viewBox="0 0 512 512" xmlns="http://www.w3.org/2000/svg" aria-hidden="true" width="32" height="32">
 <path d="m474.44 452.04c-3-39.859-31.039-72.656-67.902-83.316 16.879-9.1992 28.359-27.102 28.359-47.641 0-29.898-24.32-54.223-54.223-54.223-29.898 0-54.223 24.32-54.223 54.223 0 20.539 11.48 38.461 28.379 47.66-17.738 5.1406-33.801 15.441-45.941 29.781-8.1797-5.1016-17.121-9.0391-26.578-11.641 18.66-9.5781 31.461-29.02 31.461-51.398 0-31.859-25.922-57.758-57.758-57.758-31.859 0-57.758 25.922-57.758 57.758 0 22.379 12.801 41.82 31.461 51.398-9.4609 2.6016-18.398 6.5391-26.578 11.641-12.141-14.34-28.199-24.641-45.941-29.781 16.898-9.1992 28.379-27.102 28.379-47.66 0-29.898-24.32-54.223-54.223-54.223-29.902 0-54.223 24.32-54.223 54.223 0 20.539 11.48 38.441 28.359 47.641-36.859 10.66-64.922 43.461-67.902 83.316-0.28125 3.7188 1.0195 7.418 3.5391 10.141 2.5195 2.7188 6.1211 4.2812 9.8594 4.2812h105.98c-0.57812 3.2617-1 6.5586-1.2383 9.9219-0.28125 3.8594 1.0391 7.6797 3.6602 10.5 2.6211 2.8203 6.3203 4.4414 10.18 4.4414h172.96c3.8594 0 7.582-1.6211 10.199-4.4414 2.6211-2.8203 3.9414-6.6406 3.6602-10.5-0.26172-3.3594-0.67969-6.6602-1.2383-9.9219h105.98c3.7383 0 7.3203-1.5586 9.8594-4.2812 2.4219-2.7188 3.7188-6.3984 3.4414-10.141zm-133.22-130.96c0-21.762 17.699-39.461 39.461-39.461 21.738 0 39.461 17.699 39.461 39.461s-17.699 39.461-39.461 39.461c-21.781 0-39.461-17.699-39.461-39.461zm-128.22 14.398c0-23.699 19.281-43 43-43s43 19.281 43 43c0 23.699-19.281 43-43 43s-43-19.301-43-43zm-121.12-14.398c0-21.762 17.699-39.461 39.461-39.461 21.738 0 39.461 17.699 39.461 39.461s-17.699 39.461-39.461 39.461-39.461-17.699-39.461-39.461zm68.859 130.64h-108.34c3.7812-40.418 38.18-71.879 78.941-71.879 22.898 0 44.781 10.141 59.801 27.398-13.781 11.66-24.441 26.98-30.398 44.48zm9.7383 24.84c3.8008-44.082 41.18-78.457 85.52-78.457s81.719 34.379 85.52 78.457zm180.8-24.84c-5.9609-17.5-16.621-32.801-30.422-44.48 15.039-17.281 36.898-27.398 59.801-27.398 40.762 0 75.16 31.461 78.941 71.879zm-212.06-297.74c-6.3203 9.0391-7.8398 21.379-4.0586 33 3.7812 11.621 12.262 20.699 22.68 24.32 4.4414 1.5391 7.2617 5.4219 7.3594 10.121 0.19922 11.039 6.2422 21.898 16.121 29.078 9.8789 7.1797 22.078 9.5586 32.641 6.3398 4.5-1.3594 9.0586 0.12109 11.898 3.8594 6.6602 8.8008 17.922 14.059 30.141 14.059s23.48-5.2617 30.141-14.059c2.8398-3.7617 7.3984-5.2383 11.898-3.8594 10.559 3.1992 22.762 0.83984 32.641-6.3398 9.8789-7.1797 15.898-18.059 16.121-29.078 0.078125-4.6992 2.9219-8.582 7.3594-10.121 10.422-3.6211 18.898-12.699 22.68-24.32 3.7812-11.621 2.2617-23.961-4.0586-33-2.6992-3.8594-2.6992-8.6602 0-12.52 6.3203-9.0391 7.8398-21.379 4.0586-33-3.7812-11.621-12.262-20.699-22.68-24.32-4.4414-1.5391-7.2617-5.4219-7.3594-10.121-0.19922-11.039-6.2422-21.898-16.121-29.078-9.8789-7.1797-22.078-9.5586-32.641-6.3398-4.5 1.3594-9.0586-0.12109-11.898-3.8594-6.6602-8.8008-17.922-14.059-30.141-14.059s-23.48 5.2617-30.141 14.059c-2.8398 3.7617-7.3984 5.2383-11.898 3.8594-10.559-3.1992-22.762-0.83984-32.641 6.3398-9.8789 7.1797-15.898 18.059-16.121 29.078-0.078125 4.6992-2.9219 8.582-7.3594 10.121-10.422 3.6211-18.898 12.699-22.68 24.32-3.7812 11.621-2.2617 23.961 4.0586 33 2.6797 3.8789 2.6797 8.6797 0 12.52zm12.102-20.961c-3.6797-5.2812-4.4805-12.762-2.1211-20s7.3789-12.82 13.461-14.922c10.301-3.5586 17.078-12.898 17.281-23.801 0.12109-6.4414 3.8789-12.941 10.039-17.418 6.1602-4.4805 13.52-6.0391 19.68-4.1602 10.422 3.1602 21.398-0.39844 27.98-9.1016 3.8789-5.1211 10.738-8.1797 18.359-8.1797s14.48 3.0586 18.359 8.1992c6.582 8.6797 17.559 12.262 27.98 9.0781 6.1602-1.8789 13.52-0.32031 19.68 4.1602 6.1602 4.4805 9.9219 10.98 10.039 17.418 0.19922 10.898 7 20.219 17.281 23.801 6.0781 2.1016 11.121 7.6797 13.461 14.941 2.3594 7.2383 1.5586 14.719-2.1211 20-6.2422 8.9414-6.2422 20.48 0 29.422 3.6797 5.2812 4.4805 12.762 2.1211 20s-7.3789 12.82-13.461 14.922c-10.301 3.5586-17.078 12.898-17.281 23.801-0.12109 6.4414-3.8789 12.941-10.039 17.418-6.1602 4.4805-13.52 6.0391-19.68 4.1602-10.422-3.1602-21.398 0.39844-27.98 9.1016-3.8789 5.1406-10.738 8.1992-18.359 8.1992s-14.48-3.0586-18.359-8.1992c-4.9805-6.582-12.5-10.219-20.379-10.219-2.5195 0-5.0781 0.37891-7.6016 1.1406-6.1602 1.8789-13.52 0.32031-19.68-4.1602-6.1602-4.4805-9.9219-11-10.039-17.418-0.19922-10.879-7-20.219-17.281-23.801-6.0781-2.1016-11.121-7.6797-13.461-14.941-2.3594-7.2383-1.5586-14.719 2.1211-20 6.2422-8.9609 6.2422-20.5 0-29.441zm104.68 89.242c41.102 0 74.523-33.441 74.523-74.523 0-41.102-33.441-74.523-74.523-74.523-41.102 0-74.523 33.441-74.523 74.523 0 41.078 33.418 74.523 74.523 74.523zm0-134.28c32.961 0 59.762 26.801 59.762 59.762 0 32.961-26.801 59.762-59.762 59.762s-59.762-26.801-59.762-59.762c0-32.961 26.801-59.762 59.762-59.762zm-10.141 99.379c5 0 10-1.8984 13.781-5.6992l40.121-40.5c3.6602-3.6797 5.6602-8.5586 5.6406-13.719-0.019532-5.1797-2.0391-10.039-5.7188-13.699-3.6602-3.6406-8.5195-5.6406-13.68-5.6406h-0.058594c-5.1797 0.019532-10.039 2.0391-13.699 5.7188l-0.019532 0.019532-26.602 26.84-6.1016-5.9414c-7.6602-7.4609-19.98-7.2812-27.441 0.37891-7.4609 7.6602-7.2812 19.98 0.37891 27.422l19.859 19.359c3.7617 3.6406 8.6406 5.4609 13.539 5.4609zm-23.18-41.961c0.89844-0.94141 2.1211-1.3984 3.3203-1.3984 1.1602 0 2.3203 0.44141 3.2188 1.3008l11.32 11.039c2.8984 2.8203 7.5391 2.7812 10.398-0.078125l31.762-32.059c0.87891-0.87891 2.0391-1.3594 3.2617-1.3594h0.019531c1.2383 0 2.3984 0.48047 3.2617 1.3398 0.87891 0.87891 1.3594 2.0391 1.3594 3.2812 0 1.2383-0.48047 2.3984-1.3594 3.2812l-40.121 40.5c-1.7812 1.8008-4.6992 1.8203-6.5 0.058594l-19.859-19.359c-1.8203-1.7617-1.8594-4.6992-0.078125-6.5391z" fill="#34A3D3"></path>
</svg>